<mxfile host="65bd71144e">
    <diagram id="uiEIUaw3Dw6epOm5wBgh" name="Page-1">
        <mxGraphModel dx="667" dy="1124" grid="1" gridSize="10" guides="1" tooltips="1" connect="1" arrows="1" fold="1" page="1" pageScale="1" pageWidth="850" pageHeight="1100" math="0" shadow="0">
            <root>
                <mxCell id="0"/>
                <mxCell id="1" parent="0"/>
                <mxCell id="4" value="&lt;font style=&quot;font-size: 15px;&quot;&gt;&lt;b&gt;회원&lt;/b&gt;&lt;/font&gt;" style="whiteSpace=wrap;html=1;align=center;strokeWidth=3;" vertex="1" parent="1">
                    <mxGeometry x="180" y="330" width="100" height="40" as="geometry"/>
                </mxCell>
                <mxCell id="6" value="&lt;font style=&quot;font-size: 15px;&quot;&gt;&lt;b&gt;상품&lt;/b&gt;&lt;/font&gt;" style="whiteSpace=wrap;html=1;align=center;strokeWidth=3;" vertex="1" parent="1">
                    <mxGeometry x="470" y="330" width="100" height="40" as="geometry"/>
                </mxCell>
                <mxCell id="52" style="edgeStyle=none;html=1;exitX=1;exitY=0.25;exitDx=0;exitDy=0;strokeWidth=3;fontSize=15;" edge="1" parent="1" source="7">
                    <mxGeometry relative="1" as="geometry">
                        <mxPoint x="545" y="890" as="targetPoint"/>
                    </mxGeometry>
                </mxCell>
                <mxCell id="7" value="&lt;font style=&quot;font-size: 15px;&quot;&gt;&lt;b&gt;제조업체&lt;/b&gt;&lt;/font&gt;" style="whiteSpace=wrap;html=1;align=center;strokeWidth=3;" vertex="1" parent="1">
                    <mxGeometry x="470" y="880" width="100" height="40" as="geometry"/>
                </mxCell>
                <mxCell id="8" value="&lt;font style=&quot;font-size: 15px;&quot;&gt;&lt;b&gt;게시글&lt;/b&gt;&lt;/font&gt;" style="whiteSpace=wrap;html=1;align=center;strokeWidth=3;" vertex="1" parent="1">
                    <mxGeometry x="180" y="880" width="100" height="40" as="geometry"/>
                </mxCell>
                <mxCell id="9" value="&lt;b&gt;아이디&lt;/b&gt;" style="ellipse;whiteSpace=wrap;html=1;align=center;fontStyle=4;fontSize=15;strokeWidth=3;" vertex="1" parent="1">
                    <mxGeometry x="30" y="230" width="100" height="40" as="geometry"/>
                </mxCell>
                <mxCell id="10" value="&lt;b&gt;비밀번호&lt;/b&gt;" style="ellipse;whiteSpace=wrap;html=1;align=center;fontSize=15;strokeWidth=3;" vertex="1" parent="1">
                    <mxGeometry x="30" y="280" width="100" height="40" as="geometry"/>
                </mxCell>
                <mxCell id="11" value="&lt;b&gt;이름&lt;/b&gt;" style="ellipse;whiteSpace=wrap;html=1;align=center;fontSize=15;strokeWidth=3;" vertex="1" parent="1">
                    <mxGeometry x="30" y="330" width="100" height="40" as="geometry"/>
                </mxCell>
                <mxCell id="14" value="&lt;b&gt;등급&lt;/b&gt;" style="ellipse;whiteSpace=wrap;html=1;align=center;fontSize=15;strokeWidth=3;" vertex="1" parent="1">
                    <mxGeometry x="30" y="480" width="100" height="40" as="geometry"/>
                </mxCell>
                <mxCell id="15" value="&lt;b&gt;적립금&lt;/b&gt;" style="ellipse;whiteSpace=wrap;html=1;align=center;fontSize=15;strokeWidth=3;" vertex="1" parent="1">
                    <mxGeometry x="30" y="530" width="100" height="40" as="geometry"/>
                </mxCell>
                <mxCell id="16" value="" style="endArrow=none;html=1;rounded=0;fontSize=15;entryX=0;entryY=0.25;entryDx=0;entryDy=0;strokeWidth=3;exitX=1;exitY=0.5;exitDx=0;exitDy=0;" edge="1" parent="1" source="9" target="4">
                    <mxGeometry relative="1" as="geometry">
                        <mxPoint x="130" y="289.5" as="sourcePoint"/>
                        <mxPoint x="290" y="289.5" as="targetPoint"/>
                    </mxGeometry>
                </mxCell>
                <mxCell id="17" value="" style="endArrow=none;html=1;rounded=0;fontSize=15;exitX=1;exitY=0.5;exitDx=0;exitDy=0;strokeWidth=3;" edge="1" parent="1" source="10">
                    <mxGeometry relative="1" as="geometry">
                        <mxPoint x="140" y="340" as="sourcePoint"/>
                        <mxPoint x="180" y="340" as="targetPoint"/>
                    </mxGeometry>
                </mxCell>
                <mxCell id="18" value="" style="endArrow=none;html=1;rounded=0;fontSize=15;entryX=0;entryY=0.25;entryDx=0;entryDy=0;exitX=1;exitY=0.5;exitDx=0;exitDy=0;strokeWidth=3;" edge="1" parent="1" source="11" target="4">
                    <mxGeometry relative="1" as="geometry">
                        <mxPoint x="140" y="350" as="sourcePoint"/>
                        <mxPoint x="190" y="340" as="targetPoint"/>
                    </mxGeometry>
                </mxCell>
                <mxCell id="19" value="" style="endArrow=none;html=1;rounded=0;fontSize=15;entryX=0;entryY=0.25;entryDx=0;entryDy=0;exitX=0.98;exitY=0.675;exitDx=0;exitDy=0;exitPerimeter=0;strokeWidth=3;" edge="1" parent="1" source="23" target="4">
                    <mxGeometry relative="1" as="geometry">
                        <mxPoint x="130" y="440" as="sourcePoint"/>
                        <mxPoint x="190" y="350" as="targetPoint"/>
                    </mxGeometry>
                </mxCell>
                <mxCell id="20" value="" style="endArrow=none;html=1;rounded=0;fontSize=15;exitX=1;exitY=0.5;exitDx=0;exitDy=0;strokeWidth=3;" edge="1" parent="1" source="24">
                    <mxGeometry relative="1" as="geometry">
                        <mxPoint x="130" y="480" as="sourcePoint"/>
                        <mxPoint x="180" y="340" as="targetPoint"/>
                    </mxGeometry>
                </mxCell>
                <mxCell id="21" value="" style="endArrow=none;html=1;rounded=0;fontSize=15;exitX=1;exitY=0.5;exitDx=0;exitDy=0;strokeWidth=3;" edge="1" parent="1" source="14">
                    <mxGeometry relative="1" as="geometry">
                        <mxPoint x="140" y="490" as="sourcePoint"/>
                        <mxPoint x="180" y="350" as="targetPoint"/>
                    </mxGeometry>
                </mxCell>
                <mxCell id="22" value="" style="endArrow=none;html=1;rounded=0;fontSize=15;exitX=1;exitY=0.5;exitDx=0;exitDy=0;strokeWidth=3;" edge="1" parent="1" source="15">
                    <mxGeometry relative="1" as="geometry">
                        <mxPoint x="143" y="523" as="sourcePoint"/>
                        <mxPoint x="180" y="350" as="targetPoint"/>
                    </mxGeometry>
                </mxCell>
                <mxCell id="23" value="&lt;b&gt;나이&lt;/b&gt;" style="ellipse;whiteSpace=wrap;html=1;align=center;fontSize=15;strokeWidth=3;" vertex="1" parent="1">
                    <mxGeometry x="30" y="380" width="100" height="40" as="geometry"/>
                </mxCell>
                <mxCell id="24" value="&lt;b&gt;직업&lt;/b&gt;" style="ellipse;whiteSpace=wrap;html=1;align=center;fontSize=15;strokeWidth=3;" vertex="1" parent="1">
                    <mxGeometry x="30" y="430" width="100" height="40" as="geometry"/>
                </mxCell>
                <mxCell id="26" value="&lt;b&gt;상품명&lt;/b&gt;" style="ellipse;whiteSpace=wrap;html=1;align=center;fontSize=15;strokeWidth=3;" vertex="1" parent="1">
                    <mxGeometry x="610" y="305" width="100" height="40" as="geometry"/>
                </mxCell>
                <mxCell id="27" value="&lt;b&gt;단가&lt;/b&gt;" style="ellipse;whiteSpace=wrap;html=1;align=center;fontSize=15;strokeWidth=3;" vertex="1" parent="1">
                    <mxGeometry x="610" y="405" width="100" height="40" as="geometry"/>
                </mxCell>
                <mxCell id="28" value="&lt;b&gt;재고량&lt;/b&gt;" style="ellipse;whiteSpace=wrap;html=1;align=center;fontSize=15;strokeWidth=3;" vertex="1" parent="1">
                    <mxGeometry x="610" y="355" width="100" height="40" as="geometry"/>
                </mxCell>
                <mxCell id="29" value="&lt;b&gt;상품번호&lt;/b&gt;" style="ellipse;whiteSpace=wrap;html=1;align=center;fontStyle=4;fontSize=15;strokeWidth=3;" vertex="1" parent="1">
                    <mxGeometry x="610" y="255" width="100" height="40" as="geometry"/>
                </mxCell>
                <mxCell id="30" value="" style="endArrow=none;html=1;rounded=0;fontSize=15;entryX=0;entryY=0.5;entryDx=0;entryDy=0;strokeWidth=3;" edge="1" parent="1" target="29">
                    <mxGeometry relative="1" as="geometry">
                        <mxPoint x="570" y="345" as="sourcePoint"/>
                        <mxPoint x="690" y="465" as="targetPoint"/>
                    </mxGeometry>
                </mxCell>
                <mxCell id="31" value="" style="endArrow=none;html=1;rounded=0;fontSize=15;entryX=0;entryY=0.5;entryDx=0;entryDy=0;exitX=1;exitY=0.5;exitDx=0;exitDy=0;strokeWidth=3;" edge="1" parent="1" source="6" target="26">
                    <mxGeometry relative="1" as="geometry">
                        <mxPoint x="560" y="335" as="sourcePoint"/>
                        <mxPoint x="620" y="295" as="targetPoint"/>
                    </mxGeometry>
                </mxCell>
                <mxCell id="32" value="" style="endArrow=none;html=1;rounded=0;fontSize=15;entryX=0;entryY=0.5;entryDx=0;entryDy=0;strokeWidth=3;" edge="1" parent="1" target="28">
                    <mxGeometry relative="1" as="geometry">
                        <mxPoint x="570" y="345" as="sourcePoint"/>
                        <mxPoint x="620" y="335" as="targetPoint"/>
                    </mxGeometry>
                </mxCell>
                <mxCell id="33" value="" style="endArrow=none;html=1;rounded=0;fontSize=15;entryX=0;entryY=0.5;entryDx=0;entryDy=0;strokeWidth=3;" edge="1" parent="1" target="27">
                    <mxGeometry relative="1" as="geometry">
                        <mxPoint x="570" y="345" as="sourcePoint"/>
                        <mxPoint x="620" y="375" as="targetPoint"/>
                    </mxGeometry>
                </mxCell>
                <mxCell id="34" value="&lt;b&gt;담당자&lt;/b&gt;" style="ellipse;whiteSpace=wrap;html=1;align=center;fontSize=15;strokeWidth=3;" vertex="1" parent="1">
                    <mxGeometry x="617.5" y="990" width="100" height="40" as="geometry"/>
                </mxCell>
                <mxCell id="35" value="&lt;b&gt;위치&lt;/b&gt;" style="ellipse;whiteSpace=wrap;html=1;align=center;fontSize=15;strokeWidth=3;" vertex="1" parent="1">
                    <mxGeometry x="617.5" y="940" width="100" height="40" as="geometry"/>
                </mxCell>
                <mxCell id="36" value="&lt;b&gt;전화번호&lt;/b&gt;" style="ellipse;whiteSpace=wrap;html=1;align=center;fontSize=15;strokeWidth=3;" vertex="1" parent="1">
                    <mxGeometry x="617.5" y="890" width="100" height="40" as="geometry"/>
                </mxCell>
                <mxCell id="38" value="&lt;b&gt;글번호&lt;/b&gt;" style="ellipse;whiteSpace=wrap;html=1;align=center;fontStyle=4;fontSize=15;strokeWidth=3;" vertex="1" parent="1">
                    <mxGeometry x="30" y="800" width="100" height="40" as="geometry"/>
                </mxCell>
                <mxCell id="39" value="&lt;b&gt;글제목&lt;/b&gt;" style="ellipse;whiteSpace=wrap;html=1;align=center;fontSize=15;strokeWidth=3;" vertex="1" parent="1">
                    <mxGeometry x="30" y="850" width="100" height="40" as="geometry"/>
                </mxCell>
                <mxCell id="40" value="&lt;b&gt;글내용&lt;/b&gt;" style="ellipse;whiteSpace=wrap;html=1;align=center;fontSize=15;strokeWidth=3;" vertex="1" parent="1">
                    <mxGeometry x="30" y="900" width="100" height="40" as="geometry"/>
                </mxCell>
                <mxCell id="41" value="&lt;b&gt;작성일자&lt;/b&gt;" style="ellipse;whiteSpace=wrap;html=1;align=center;fontSize=15;strokeWidth=3;" vertex="1" parent="1">
                    <mxGeometry x="30" y="950" width="100" height="40" as="geometry"/>
                </mxCell>
                <mxCell id="42" value="" style="endArrow=none;html=1;rounded=0;fontSize=15;exitX=0;exitY=0.5;exitDx=0;exitDy=0;entryX=1;entryY=0.25;entryDx=0;entryDy=0;strokeWidth=3;" edge="1" parent="1" source="88" target="7">
                    <mxGeometry relative="1" as="geometry">
                        <mxPoint x="617.5" y="820" as="sourcePoint"/>
                        <mxPoint x="602.5" y="890" as="targetPoint"/>
                    </mxGeometry>
                </mxCell>
                <mxCell id="43" value="" style="endArrow=none;html=1;rounded=0;fontSize=15;exitX=0;exitY=0.5;exitDx=0;exitDy=0;strokeWidth=3;" edge="1" parent="1" source="36">
                    <mxGeometry relative="1" as="geometry">
                        <mxPoint x="587.5" y="860" as="sourcePoint"/>
                        <mxPoint x="570" y="890" as="targetPoint"/>
                    </mxGeometry>
                </mxCell>
                <mxCell id="44" value="" style="endArrow=none;html=1;rounded=0;fontSize=15;strokeWidth=3;exitX=0;exitY=0.5;exitDx=0;exitDy=0;" edge="1" parent="1" source="35">
                    <mxGeometry relative="1" as="geometry">
                        <mxPoint x="717.5" y="920" as="sourcePoint"/>
                        <mxPoint x="570" y="890" as="targetPoint"/>
                    </mxGeometry>
                </mxCell>
                <mxCell id="45" value="" style="endArrow=none;html=1;rounded=0;fontSize=15;exitX=0;exitY=0.5;exitDx=0;exitDy=0;strokeWidth=3;" edge="1" parent="1" source="34">
                    <mxGeometry relative="1" as="geometry">
                        <mxPoint x="587.5" y="940" as="sourcePoint"/>
                        <mxPoint x="570" y="890" as="targetPoint"/>
                    </mxGeometry>
                </mxCell>
                <mxCell id="46" value="" style="endArrow=none;html=1;rounded=0;fontSize=15;entryX=1;entryY=0.5;entryDx=0;entryDy=0;exitX=0;exitY=0.5;exitDx=0;exitDy=0;strokeWidth=3;" edge="1" parent="1" source="8" target="38">
                    <mxGeometry relative="1" as="geometry">
                        <mxPoint x="60" y="650" as="sourcePoint"/>
                        <mxPoint x="220" y="650" as="targetPoint"/>
                    </mxGeometry>
                </mxCell>
                <mxCell id="47" value="" style="endArrow=none;html=1;rounded=0;fontSize=15;exitX=0;exitY=0.25;exitDx=0;exitDy=0;strokeWidth=3;" edge="1" parent="1" source="8">
                    <mxGeometry relative="1" as="geometry">
                        <mxPoint x="130" y="860" as="sourcePoint"/>
                        <mxPoint x="125" y="876" as="targetPoint"/>
                    </mxGeometry>
                </mxCell>
                <mxCell id="48" value="" style="endArrow=none;html=1;rounded=0;fontSize=15;exitX=0;exitY=0.25;exitDx=0;exitDy=0;strokeWidth=3;entryX=1;entryY=0;entryDx=0;entryDy=0;" edge="1" parent="1" source="8" target="40">
                    <mxGeometry relative="1" as="geometry">
                        <mxPoint x="130" y="880" as="sourcePoint"/>
                        <mxPoint x="140" y="930" as="targetPoint"/>
                    </mxGeometry>
                </mxCell>
                <mxCell id="49" value="" style="endArrow=none;html=1;rounded=0;fontSize=15;entryX=1;entryY=0;entryDx=0;entryDy=0;exitX=0;exitY=0.5;exitDx=0;exitDy=0;strokeWidth=3;" edge="1" parent="1" source="8" target="41">
                    <mxGeometry relative="1" as="geometry">
                        <mxPoint x="130" y="900" as="sourcePoint"/>
                        <mxPoint x="170" y="940" as="targetPoint"/>
                    </mxGeometry>
                </mxCell>
                <mxCell id="54" value="&lt;b&gt;&lt;font style=&quot;font-size: 19px;&quot;&gt;주문&lt;/font&gt;&lt;/b&gt;" style="shape=rhombus;perimeter=rhombusPerimeter;whiteSpace=wrap;html=1;align=center;strokeWidth=3;fontSize=15;" vertex="1" parent="1">
                    <mxGeometry x="320" y="320" width="120" height="60" as="geometry"/>
                </mxCell>
                <mxCell id="55" value="" style="endArrow=none;html=1;rounded=0;strokeWidth=2;fontSize=15;entryX=0;entryY=0.5;entryDx=0;entryDy=0;exitX=1;exitY=0.5;exitDx=0;exitDy=0;" edge="1" parent="1" source="4" target="6">
                    <mxGeometry relative="1" as="geometry">
                        <mxPoint x="300" y="349.28999999999996" as="sourcePoint"/>
                        <mxPoint x="460" y="349.28999999999996" as="targetPoint"/>
                    </mxGeometry>
                </mxCell>
                <mxCell id="56" value="M" style="resizable=0;html=1;align=left;verticalAlign=bottom;strokeWidth=3;fontSize=21;fontStyle=1" connectable="0" vertex="1" parent="55">
                    <mxGeometry x="-1" relative="1" as="geometry">
                        <mxPoint x="3" as="offset"/>
                    </mxGeometry>
                </mxCell>
                <mxCell id="57" value="N" style="resizable=0;html=1;align=right;verticalAlign=bottom;strokeWidth=3;fontSize=21;fontStyle=1" connectable="0" vertex="1" parent="55">
                    <mxGeometry x="1" relative="1" as="geometry">
                        <mxPoint x="-5" as="offset"/>
                    </mxGeometry>
                </mxCell>
                <mxCell id="59" value="&lt;b&gt;주문번호&lt;/b&gt;" style="ellipse;whiteSpace=wrap;html=1;align=center;fontStyle=4;strokeWidth=3;fontSize=18;" vertex="1" parent="1">
                    <mxGeometry x="420" y="250" width="100" height="40" as="geometry"/>
                </mxCell>
                <mxCell id="61" value="&lt;b&gt;주문일자&lt;/b&gt;" style="ellipse;whiteSpace=wrap;html=1;align=center;strokeWidth=3;fontSize=18;" vertex="1" parent="1">
                    <mxGeometry x="250" y="265" width="100" height="40" as="geometry"/>
                </mxCell>
                <mxCell id="62" value="&lt;b&gt;배송지&lt;/b&gt;" style="ellipse;whiteSpace=wrap;html=1;align=center;strokeWidth=3;fontSize=18;" vertex="1" parent="1">
                    <mxGeometry x="260" y="170" width="100" height="40" as="geometry"/>
                </mxCell>
                <mxCell id="63" value="&lt;b&gt;주문수량&lt;/b&gt;" style="ellipse;whiteSpace=wrap;html=1;align=center;strokeWidth=3;fontSize=18;" vertex="1" parent="1">
                    <mxGeometry x="350" y="200" width="100" height="40" as="geometry"/>
                </mxCell>
                <mxCell id="64" value="" style="endArrow=none;html=1;rounded=0;strokeWidth=2;fontSize=18;entryX=0.5;entryY=0;entryDx=0;entryDy=0;" edge="1" parent="1" source="61" target="54">
                    <mxGeometry relative="1" as="geometry">
                        <mxPoint x="290" y="450" as="sourcePoint"/>
                        <mxPoint x="450" y="450" as="targetPoint"/>
                    </mxGeometry>
                </mxCell>
                <mxCell id="65" value="" style="endArrow=none;html=1;rounded=0;strokeWidth=2;fontSize=18;exitX=0.5;exitY=1;exitDx=0;exitDy=0;entryX=0.5;entryY=0;entryDx=0;entryDy=0;" edge="1" parent="1" source="62" target="54">
                    <mxGeometry relative="1" as="geometry">
                        <mxPoint x="315.022328669732" y="234.0759729139454" as="sourcePoint"/>
                        <mxPoint x="390" y="310" as="targetPoint"/>
                    </mxGeometry>
                </mxCell>
                <mxCell id="66" value="" style="endArrow=none;html=1;rounded=0;strokeWidth=2;fontSize=18;exitX=0.5;exitY=1;exitDx=0;exitDy=0;entryX=0.5;entryY=0;entryDx=0;entryDy=0;" edge="1" parent="1" source="63" target="54">
                    <mxGeometry relative="1" as="geometry">
                        <mxPoint x="435" y="210" as="sourcePoint"/>
                        <mxPoint x="420" y="310" as="targetPoint"/>
                    </mxGeometry>
                </mxCell>
                <mxCell id="67" value="" style="endArrow=none;html=1;rounded=0;strokeWidth=2;fontSize=18;exitX=0.5;exitY=1;exitDx=0;exitDy=0;entryX=0.5;entryY=0;entryDx=0;entryDy=0;" edge="1" parent="1" source="59" target="54">
                    <mxGeometry relative="1" as="geometry">
                        <mxPoint x="410" y="250" as="sourcePoint"/>
                        <mxPoint x="390" y="330" as="targetPoint"/>
                    </mxGeometry>
                </mxCell>
                <mxCell id="68" value="&lt;b&gt;&lt;font style=&quot;font-size: 19px;&quot;&gt;공급&lt;/font&gt;&lt;/b&gt;" style="shape=rhombus;perimeter=rhombusPerimeter;whiteSpace=wrap;html=1;align=center;strokeWidth=3;fontSize=15;" vertex="1" parent="1">
                    <mxGeometry x="460" y="560" width="120" height="60" as="geometry"/>
                </mxCell>
                <mxCell id="69" value="&lt;b&gt;공급량&lt;/b&gt;" style="ellipse;whiteSpace=wrap;html=1;align=center;fontSize=15;strokeWidth=3;" vertex="1" parent="1">
                    <mxGeometry x="360" y="540" width="100" height="40" as="geometry"/>
                </mxCell>
                <mxCell id="70" value="&lt;b&gt;공급일자&lt;/b&gt;" style="ellipse;whiteSpace=wrap;html=1;align=center;fontSize=15;strokeWidth=3;" vertex="1" parent="1">
                    <mxGeometry x="360" y="590" width="100" height="40" as="geometry"/>
                </mxCell>
                <mxCell id="71" value="" style="endArrow=none;html=1;rounded=0;strokeWidth=2;fontSize=18;exitX=1;exitY=0.5;exitDx=0;exitDy=0;entryX=0;entryY=0;entryDx=0;entryDy=0;" edge="1" parent="1" source="69" target="68">
                    <mxGeometry relative="1" as="geometry">
                        <mxPoint x="300" y="590" as="sourcePoint"/>
                        <mxPoint x="460" y="590" as="targetPoint"/>
                    </mxGeometry>
                </mxCell>
                <mxCell id="72" value="" style="endArrow=none;html=1;rounded=0;strokeWidth=2;fontSize=18;exitX=1;exitY=0.5;exitDx=0;exitDy=0;entryX=0;entryY=1;entryDx=0;entryDy=0;" edge="1" parent="1" source="70" target="68">
                    <mxGeometry relative="1" as="geometry">
                        <mxPoint x="469.99999999999795" y="550" as="sourcePoint"/>
                        <mxPoint x="550" y="570" as="targetPoint"/>
                    </mxGeometry>
                </mxCell>
                <mxCell id="78" value="" style="endArrow=none;html=1;rounded=0;strokeWidth=2;fontSize=18;entryX=0.5;entryY=0;entryDx=0;entryDy=0;exitX=0.5;exitY=1;exitDx=0;exitDy=0;" edge="1" parent="1" source="68" target="7">
                    <mxGeometry relative="1" as="geometry">
                        <mxPoint x="300" y="590" as="sourcePoint"/>
                        <mxPoint x="460" y="590" as="targetPoint"/>
                    </mxGeometry>
                </mxCell>
                <mxCell id="79" value="1" style="resizable=0;html=1;align=right;verticalAlign=bottom;strokeWidth=3;fontSize=21;fontStyle=1" connectable="0" vertex="1" parent="78">
                    <mxGeometry x="1" relative="1" as="geometry">
                        <mxPoint x="-10" y="-10" as="offset"/>
                    </mxGeometry>
                </mxCell>
                <mxCell id="81" value="" style="shape=link;html=1;rounded=0;strokeWidth=2;fontSize=21;entryX=0.5;entryY=1;entryDx=0;entryDy=0;exitX=0.5;exitY=0;exitDx=0;exitDy=0;" edge="1" parent="1" source="68" target="6">
                    <mxGeometry relative="1" as="geometry">
                        <mxPoint x="520" y="570" as="sourcePoint"/>
                        <mxPoint x="520" y="380" as="targetPoint"/>
                    </mxGeometry>
                </mxCell>
                <mxCell id="82" value="N" style="resizable=0;html=1;align=right;verticalAlign=bottom;strokeWidth=3;fontSize=21;fontStyle=1" connectable="0" vertex="1" parent="81">
                    <mxGeometry x="1" relative="1" as="geometry">
                        <mxPoint x="-10" y="30" as="offset"/>
                    </mxGeometry>
                </mxCell>
                <mxCell id="83" value="&lt;b&gt;&lt;font style=&quot;font-size: 19px;&quot;&gt;작성&lt;/font&gt;&lt;/b&gt;" style="shape=rhombus;perimeter=rhombusPerimeter;whiteSpace=wrap;html=1;align=center;strokeWidth=3;fontSize=15;" vertex="1" parent="1">
                    <mxGeometry x="170" y="560" width="120" height="60" as="geometry"/>
                </mxCell>
                <mxCell id="84" value="" style="endArrow=none;html=1;rounded=0;strokeWidth=2;fontSize=21;entryX=0.5;entryY=1;entryDx=0;entryDy=0;exitX=0.5;exitY=0;exitDx=0;exitDy=0;" edge="1" parent="1" source="83" target="4">
                    <mxGeometry relative="1" as="geometry">
                        <mxPoint x="290" y="590" as="sourcePoint"/>
                        <mxPoint x="450" y="590" as="targetPoint"/>
                    </mxGeometry>
                </mxCell>
                <mxCell id="85" value="1" style="resizable=0;html=1;align=right;verticalAlign=bottom;strokeWidth=3;fontSize=21;fontStyle=1" connectable="0" vertex="1" parent="84">
                    <mxGeometry x="1" relative="1" as="geometry">
                        <mxPoint x="20" y="30" as="offset"/>
                    </mxGeometry>
                </mxCell>
                <mxCell id="86" value="" style="shape=link;html=1;rounded=0;strokeWidth=2;fontSize=21;entryX=0.5;entryY=0;entryDx=0;entryDy=0;exitX=0.5;exitY=1;exitDx=0;exitDy=0;" edge="1" parent="1" source="83" target="8">
                    <mxGeometry relative="1" as="geometry">
                        <mxPoint x="290" y="590" as="sourcePoint"/>
                        <mxPoint x="450" y="590" as="targetPoint"/>
                    </mxGeometry>
                </mxCell>
                <mxCell id="87" value="N" style="resizable=0;html=1;align=right;verticalAlign=bottom;strokeWidth=3;fontSize=21;fontStyle=1" connectable="0" vertex="1" parent="86">
                    <mxGeometry x="1" relative="1" as="geometry">
                        <mxPoint x="-10" y="-10" as="offset"/>
                    </mxGeometry>
                </mxCell>
                <mxCell id="88" value="&lt;b style=&quot;border-color: var(--border-color);&quot;&gt;제조업체명&lt;/b&gt;" style="ellipse;whiteSpace=wrap;html=1;align=center;fontSize=15;strokeWidth=3;" vertex="1" parent="1">
                    <mxGeometry x="617.5" y="840" width="100" height="40" as="geometry"/>
                </mxCell>
                <mxCell id="89" value="&lt;b&gt;업체코드&lt;/b&gt;" style="ellipse;whiteSpace=wrap;html=1;align=center;fontStyle=4;fontSize=15;strokeWidth=3;" vertex="1" parent="1">
                    <mxGeometry x="617.5" y="790" width="100" height="40" as="geometry"/>
                </mxCell>
                <mxCell id="90" value="" style="endArrow=none;html=1;rounded=0;fontSize=15;exitX=0;exitY=0.5;exitDx=0;exitDy=0;entryX=1;entryY=0.25;entryDx=0;entryDy=0;strokeWidth=3;" edge="1" parent="1" source="89" target="7">
                    <mxGeometry relative="1" as="geometry">
                        <mxPoint x="627.5" y="830" as="sourcePoint"/>
                        <mxPoint x="580" y="900" as="targetPoint"/>
                    </mxGeometry>
                </mxCell>
            </root>
        </mxGraphModel>
    </diagram>
    <diagram id="WE215QF3MYmQiRt59toL" name="Page-2">
        <mxGraphModel dx="778" dy="1312" grid="1" gridSize="10" guides="1" tooltips="1" connect="1" arrows="1" fold="1" page="1" pageScale="1" pageWidth="850" pageHeight="1100" math="0" shadow="0">
            <root>
                <mxCell id="0"/>
                <mxCell id="1" parent="0"/>
                <mxCell id="_etcFufbZ5QCCoaGHkaQ-1" value="상품" style="shape=table;startSize=30;container=1;collapsible=1;childLayout=tableLayout;fixedRows=1;rowLines=0;fontStyle=1;align=center;resizeLast=1;strokeWidth=3;fontSize=21;" vertex="1" parent="1">
                    <mxGeometry x="610" y="130" width="180" height="180" as="geometry"/>
                </mxCell>
                <mxCell id="_etcFufbZ5QCCoaGHkaQ-2" value="" style="shape=tableRow;horizontal=0;startSize=0;swimlaneHead=0;swimlaneBody=0;fillColor=none;collapsible=0;dropTarget=0;points=[[0,0.5],[1,0.5]];portConstraint=eastwest;top=0;left=0;right=0;bottom=1;strokeWidth=3;fontSize=21;" vertex="1" parent="_etcFufbZ5QCCoaGHkaQ-1">
                    <mxGeometry y="30" width="180" height="30" as="geometry"/>
                </mxCell>
                <mxCell id="_etcFufbZ5QCCoaGHkaQ-3" value="PK" style="shape=partialRectangle;connectable=0;fillColor=none;top=0;left=0;bottom=0;right=0;fontStyle=1;overflow=hidden;strokeWidth=3;fontSize=21;" vertex="1" parent="_etcFufbZ5QCCoaGHkaQ-2">
                    <mxGeometry width="30" height="30" as="geometry">
                        <mxRectangle width="30" height="30" as="alternateBounds"/>
                    </mxGeometry>
                </mxCell>
                <mxCell id="_etcFufbZ5QCCoaGHkaQ-4" value="상품번호" style="shape=partialRectangle;connectable=0;fillColor=none;top=0;left=0;bottom=0;right=0;align=left;spacingLeft=6;fontStyle=5;overflow=hidden;strokeWidth=3;fontSize=21;" vertex="1" parent="_etcFufbZ5QCCoaGHkaQ-2">
                    <mxGeometry x="30" width="150" height="30" as="geometry">
                        <mxRectangle width="150" height="30" as="alternateBounds"/>
                    </mxGeometry>
                </mxCell>
                <mxCell id="_etcFufbZ5QCCoaGHkaQ-5" value="" style="shape=tableRow;horizontal=0;startSize=0;swimlaneHead=0;swimlaneBody=0;fillColor=none;collapsible=0;dropTarget=0;points=[[0,0.5],[1,0.5]];portConstraint=eastwest;top=0;left=0;right=0;bottom=0;strokeWidth=3;fontSize=21;" vertex="1" parent="_etcFufbZ5QCCoaGHkaQ-1">
                    <mxGeometry y="60" width="180" height="30" as="geometry"/>
                </mxCell>
                <mxCell id="_etcFufbZ5QCCoaGHkaQ-6" value="" style="shape=partialRectangle;connectable=0;fillColor=none;top=0;left=0;bottom=0;right=0;editable=1;overflow=hidden;strokeWidth=3;fontSize=21;" vertex="1" parent="_etcFufbZ5QCCoaGHkaQ-5">
                    <mxGeometry width="30" height="30" as="geometry">
                        <mxRectangle width="30" height="30" as="alternateBounds"/>
                    </mxGeometry>
                </mxCell>
                <mxCell id="_etcFufbZ5QCCoaGHkaQ-7" value="상품명    " style="shape=partialRectangle;connectable=0;fillColor=none;top=0;left=0;bottom=0;right=0;align=left;spacingLeft=6;overflow=hidden;strokeWidth=3;fontSize=21;" vertex="1" parent="_etcFufbZ5QCCoaGHkaQ-5">
                    <mxGeometry x="30" width="150" height="30" as="geometry">
                        <mxRectangle width="150" height="30" as="alternateBounds"/>
                    </mxGeometry>
                </mxCell>
                <mxCell id="_etcFufbZ5QCCoaGHkaQ-8" value="" style="shape=tableRow;horizontal=0;startSize=0;swimlaneHead=0;swimlaneBody=0;fillColor=none;collapsible=0;dropTarget=0;points=[[0,0.5],[1,0.5]];portConstraint=eastwest;top=0;left=0;right=0;bottom=0;strokeWidth=3;fontSize=21;" vertex="1" parent="_etcFufbZ5QCCoaGHkaQ-1">
                    <mxGeometry y="90" width="180" height="30" as="geometry"/>
                </mxCell>
                <mxCell id="_etcFufbZ5QCCoaGHkaQ-9" value="" style="shape=partialRectangle;connectable=0;fillColor=none;top=0;left=0;bottom=0;right=0;editable=1;overflow=hidden;strokeWidth=3;fontSize=21;" vertex="1" parent="_etcFufbZ5QCCoaGHkaQ-8">
                    <mxGeometry width="30" height="30" as="geometry">
                        <mxRectangle width="30" height="30" as="alternateBounds"/>
                    </mxGeometry>
                </mxCell>
                <mxCell id="_etcFufbZ5QCCoaGHkaQ-10" value="재고량" style="shape=partialRectangle;connectable=0;fillColor=none;top=0;left=0;bottom=0;right=0;align=left;spacingLeft=6;overflow=hidden;strokeWidth=3;fontSize=21;" vertex="1" parent="_etcFufbZ5QCCoaGHkaQ-8">
                    <mxGeometry x="30" width="150" height="30" as="geometry">
                        <mxRectangle width="150" height="30" as="alternateBounds"/>
                    </mxGeometry>
                </mxCell>
                <mxCell id="_etcFufbZ5QCCoaGHkaQ-11" value="" style="shape=tableRow;horizontal=0;startSize=0;swimlaneHead=0;swimlaneBody=0;fillColor=none;collapsible=0;dropTarget=0;points=[[0,0.5],[1,0.5]];portConstraint=eastwest;top=0;left=0;right=0;bottom=0;strokeWidth=3;fontSize=21;" vertex="1" parent="_etcFufbZ5QCCoaGHkaQ-1">
                    <mxGeometry y="120" width="180" height="30" as="geometry"/>
                </mxCell>
                <mxCell id="_etcFufbZ5QCCoaGHkaQ-12" value="" style="shape=partialRectangle;connectable=0;fillColor=none;top=0;left=0;bottom=0;right=0;editable=1;overflow=hidden;strokeWidth=3;fontSize=21;" vertex="1" parent="_etcFufbZ5QCCoaGHkaQ-11">
                    <mxGeometry width="30" height="30" as="geometry">
                        <mxRectangle width="30" height="30" as="alternateBounds"/>
                    </mxGeometry>
                </mxCell>
                <mxCell id="_etcFufbZ5QCCoaGHkaQ-13" value="단가" style="shape=partialRectangle;connectable=0;fillColor=none;top=0;left=0;bottom=0;right=0;align=left;spacingLeft=6;overflow=hidden;strokeWidth=3;fontSize=21;" vertex="1" parent="_etcFufbZ5QCCoaGHkaQ-11">
                    <mxGeometry x="30" width="150" height="30" as="geometry">
                        <mxRectangle width="150" height="30" as="alternateBounds"/>
                    </mxGeometry>
                </mxCell>
                <mxCell id="FUyqoysUUn2u5ci2wIMg-52" value="" style="shape=tableRow;horizontal=0;startSize=0;swimlaneHead=0;swimlaneBody=0;fillColor=none;collapsible=0;dropTarget=0;points=[[0,0.5],[1,0.5]];portConstraint=eastwest;top=0;left=0;right=0;bottom=1;strokeWidth=3;fontSize=21;" vertex="1" parent="_etcFufbZ5QCCoaGHkaQ-1">
                    <mxGeometry y="150" width="180" height="30" as="geometry"/>
                </mxCell>
                <mxCell id="FUyqoysUUn2u5ci2wIMg-53" value="FK" style="shape=partialRectangle;connectable=0;fillColor=none;top=0;left=0;bottom=0;right=0;fontStyle=1;overflow=hidden;strokeWidth=3;fontSize=21;" vertex="1" parent="FUyqoysUUn2u5ci2wIMg-52">
                    <mxGeometry width="30" height="30" as="geometry">
                        <mxRectangle width="30" height="30" as="alternateBounds"/>
                    </mxGeometry>
                </mxCell>
                <mxCell id="FUyqoysUUn2u5ci2wIMg-54" value="업체코드" style="shape=partialRectangle;connectable=0;fillColor=none;top=0;left=0;bottom=0;right=0;align=left;spacingLeft=6;fontStyle=5;overflow=hidden;strokeWidth=3;fontSize=21;" vertex="1" parent="FUyqoysUUn2u5ci2wIMg-52">
                    <mxGeometry x="30" width="150" height="30" as="geometry">
                        <mxRectangle width="150" height="30" as="alternateBounds"/>
                    </mxGeometry>
                </mxCell>
                <mxCell id="rLvCmqJ5R6ihczDgy6Mz-1" value="제조업체" style="shape=table;startSize=30;container=1;collapsible=1;childLayout=tableLayout;fixedRows=1;rowLines=0;fontStyle=1;align=center;resizeLast=1;strokeWidth=3;fontSize=21;" vertex="1" parent="1">
                    <mxGeometry x="610" y="590" width="180" height="180" as="geometry"/>
                </mxCell>
                <mxCell id="rLvCmqJ5R6ihczDgy6Mz-2" value="" style="shape=tableRow;horizontal=0;startSize=0;swimlaneHead=0;swimlaneBody=0;fillColor=none;collapsible=0;dropTarget=0;points=[[0,0.5],[1,0.5]];portConstraint=eastwest;top=0;left=0;right=0;bottom=1;strokeWidth=3;fontSize=21;" vertex="1" parent="rLvCmqJ5R6ihczDgy6Mz-1">
                    <mxGeometry y="30" width="180" height="30" as="geometry"/>
                </mxCell>
                <mxCell id="rLvCmqJ5R6ihczDgy6Mz-3" value="PK" style="shape=partialRectangle;connectable=0;fillColor=none;top=0;left=0;bottom=0;right=0;fontStyle=1;overflow=hidden;strokeWidth=3;fontSize=21;" vertex="1" parent="rLvCmqJ5R6ihczDgy6Mz-2">
                    <mxGeometry width="30" height="30" as="geometry">
                        <mxRectangle width="30" height="30" as="alternateBounds"/>
                    </mxGeometry>
                </mxCell>
                <mxCell id="rLvCmqJ5R6ihczDgy6Mz-4" value="업체코드" style="shape=partialRectangle;connectable=0;fillColor=none;top=0;left=0;bottom=0;right=0;align=left;spacingLeft=6;fontStyle=5;overflow=hidden;strokeWidth=3;fontSize=21;" vertex="1" parent="rLvCmqJ5R6ihczDgy6Mz-2">
                    <mxGeometry x="30" width="150" height="30" as="geometry">
                        <mxRectangle width="150" height="30" as="alternateBounds"/>
                    </mxGeometry>
                </mxCell>
                <mxCell id="rLvCmqJ5R6ihczDgy6Mz-5" value="" style="shape=tableRow;horizontal=0;startSize=0;swimlaneHead=0;swimlaneBody=0;fillColor=none;collapsible=0;dropTarget=0;points=[[0,0.5],[1,0.5]];portConstraint=eastwest;top=0;left=0;right=0;bottom=0;strokeWidth=3;fontSize=21;" vertex="1" parent="rLvCmqJ5R6ihczDgy6Mz-1">
                    <mxGeometry y="60" width="180" height="30" as="geometry"/>
                </mxCell>
                <mxCell id="rLvCmqJ5R6ihczDgy6Mz-6" value="" style="shape=partialRectangle;connectable=0;fillColor=none;top=0;left=0;bottom=0;right=0;editable=1;overflow=hidden;strokeWidth=3;fontSize=21;" vertex="1" parent="rLvCmqJ5R6ihczDgy6Mz-5">
                    <mxGeometry width="30" height="30" as="geometry">
                        <mxRectangle width="30" height="30" as="alternateBounds"/>
                    </mxGeometry>
                </mxCell>
                <mxCell id="rLvCmqJ5R6ihczDgy6Mz-7" value="업체명" style="shape=partialRectangle;connectable=0;fillColor=none;top=0;left=0;bottom=0;right=0;align=left;spacingLeft=6;overflow=hidden;strokeWidth=3;fontSize=21;" vertex="1" parent="rLvCmqJ5R6ihczDgy6Mz-5">
                    <mxGeometry x="30" width="150" height="30" as="geometry">
                        <mxRectangle width="150" height="30" as="alternateBounds"/>
                    </mxGeometry>
                </mxCell>
                <mxCell id="rLvCmqJ5R6ihczDgy6Mz-8" value="" style="shape=tableRow;horizontal=0;startSize=0;swimlaneHead=0;swimlaneBody=0;fillColor=none;collapsible=0;dropTarget=0;points=[[0,0.5],[1,0.5]];portConstraint=eastwest;top=0;left=0;right=0;bottom=0;strokeWidth=3;fontSize=21;" vertex="1" parent="rLvCmqJ5R6ihczDgy6Mz-1">
                    <mxGeometry y="90" width="180" height="30" as="geometry"/>
                </mxCell>
                <mxCell id="rLvCmqJ5R6ihczDgy6Mz-9" value="" style="shape=partialRectangle;connectable=0;fillColor=none;top=0;left=0;bottom=0;right=0;editable=1;overflow=hidden;strokeWidth=3;fontSize=21;" vertex="1" parent="rLvCmqJ5R6ihczDgy6Mz-8">
                    <mxGeometry width="30" height="30" as="geometry">
                        <mxRectangle width="30" height="30" as="alternateBounds"/>
                    </mxGeometry>
                </mxCell>
                <mxCell id="rLvCmqJ5R6ihczDgy6Mz-10" value="전화번호" style="shape=partialRectangle;connectable=0;fillColor=none;top=0;left=0;bottom=0;right=0;align=left;spacingLeft=6;overflow=hidden;strokeWidth=3;fontSize=21;" vertex="1" parent="rLvCmqJ5R6ihczDgy6Mz-8">
                    <mxGeometry x="30" width="150" height="30" as="geometry">
                        <mxRectangle width="150" height="30" as="alternateBounds"/>
                    </mxGeometry>
                </mxCell>
                <mxCell id="rLvCmqJ5R6ihczDgy6Mz-11" value="" style="shape=tableRow;horizontal=0;startSize=0;swimlaneHead=0;swimlaneBody=0;fillColor=none;collapsible=0;dropTarget=0;points=[[0,0.5],[1,0.5]];portConstraint=eastwest;top=0;left=0;right=0;bottom=0;strokeWidth=3;fontSize=21;" vertex="1" parent="rLvCmqJ5R6ihczDgy6Mz-1">
                    <mxGeometry y="120" width="180" height="30" as="geometry"/>
                </mxCell>
                <mxCell id="rLvCmqJ5R6ihczDgy6Mz-12" value="" style="shape=partialRectangle;connectable=0;fillColor=none;top=0;left=0;bottom=0;right=0;editable=1;overflow=hidden;strokeWidth=3;fontSize=21;" vertex="1" parent="rLvCmqJ5R6ihczDgy6Mz-11">
                    <mxGeometry width="30" height="30" as="geometry">
                        <mxRectangle width="30" height="30" as="alternateBounds"/>
                    </mxGeometry>
                </mxCell>
                <mxCell id="rLvCmqJ5R6ihczDgy6Mz-13" value="위치" style="shape=partialRectangle;connectable=0;fillColor=none;top=0;left=0;bottom=0;right=0;align=left;spacingLeft=6;overflow=hidden;strokeWidth=3;fontSize=21;" vertex="1" parent="rLvCmqJ5R6ihczDgy6Mz-11">
                    <mxGeometry x="30" width="150" height="30" as="geometry">
                        <mxRectangle width="150" height="30" as="alternateBounds"/>
                    </mxGeometry>
                </mxCell>
                <mxCell id="rLvCmqJ5R6ihczDgy6Mz-14" value="" style="shape=tableRow;horizontal=0;startSize=0;swimlaneHead=0;swimlaneBody=0;fillColor=none;collapsible=0;dropTarget=0;points=[[0,0.5],[1,0.5]];portConstraint=eastwest;top=0;left=0;right=0;bottom=0;strokeWidth=3;fontSize=21;" vertex="1" parent="rLvCmqJ5R6ihczDgy6Mz-1">
                    <mxGeometry y="150" width="180" height="30" as="geometry"/>
                </mxCell>
                <mxCell id="rLvCmqJ5R6ihczDgy6Mz-15" value="" style="shape=partialRectangle;connectable=0;fillColor=none;top=0;left=0;bottom=0;right=0;editable=1;overflow=hidden;strokeWidth=3;fontSize=21;" vertex="1" parent="rLvCmqJ5R6ihczDgy6Mz-14">
                    <mxGeometry width="30" height="30" as="geometry">
                        <mxRectangle width="30" height="30" as="alternateBounds"/>
                    </mxGeometry>
                </mxCell>
                <mxCell id="rLvCmqJ5R6ihczDgy6Mz-16" value="담당자" style="shape=partialRectangle;connectable=0;fillColor=none;top=0;left=0;bottom=0;right=0;align=left;spacingLeft=6;overflow=hidden;strokeWidth=3;fontSize=21;" vertex="1" parent="rLvCmqJ5R6ihczDgy6Mz-14">
                    <mxGeometry x="30" width="150" height="30" as="geometry">
                        <mxRectangle width="150" height="30" as="alternateBounds"/>
                    </mxGeometry>
                </mxCell>
                <mxCell id="FUyqoysUUn2u5ci2wIMg-1" value="회원" style="shape=table;startSize=30;container=1;collapsible=1;childLayout=tableLayout;fixedRows=1;rowLines=0;fontStyle=1;align=center;resizeLast=1;strokeWidth=3;fontSize=21;" vertex="1" parent="1">
                    <mxGeometry x="90" y="110" width="180" height="240" as="geometry"/>
                </mxCell>
                <mxCell id="FUyqoysUUn2u5ci2wIMg-2" value="" style="shape=tableRow;horizontal=0;startSize=0;swimlaneHead=0;swimlaneBody=0;fillColor=none;collapsible=0;dropTarget=0;points=[[0,0.5],[1,0.5]];portConstraint=eastwest;top=0;left=0;right=0;bottom=1;strokeWidth=3;fontSize=21;" vertex="1" parent="FUyqoysUUn2u5ci2wIMg-1">
                    <mxGeometry y="30" width="180" height="30" as="geometry"/>
                </mxCell>
                <mxCell id="FUyqoysUUn2u5ci2wIMg-3" value="PK" style="shape=partialRectangle;connectable=0;fillColor=none;top=0;left=0;bottom=0;right=0;fontStyle=1;overflow=hidden;strokeWidth=3;fontSize=21;" vertex="1" parent="FUyqoysUUn2u5ci2wIMg-2">
                    <mxGeometry width="30" height="30" as="geometry">
                        <mxRectangle width="30" height="30" as="alternateBounds"/>
                    </mxGeometry>
                </mxCell>
                <mxCell id="FUyqoysUUn2u5ci2wIMg-4" value="회원아이디" style="shape=partialRectangle;connectable=0;fillColor=none;top=0;left=0;bottom=0;right=0;align=left;spacingLeft=6;fontStyle=5;overflow=hidden;strokeWidth=3;fontSize=21;" vertex="1" parent="FUyqoysUUn2u5ci2wIMg-2">
                    <mxGeometry x="30" width="150" height="30" as="geometry">
                        <mxRectangle width="150" height="30" as="alternateBounds"/>
                    </mxGeometry>
                </mxCell>
                <mxCell id="FUyqoysUUn2u5ci2wIMg-5" value="" style="shape=tableRow;horizontal=0;startSize=0;swimlaneHead=0;swimlaneBody=0;fillColor=none;collapsible=0;dropTarget=0;points=[[0,0.5],[1,0.5]];portConstraint=eastwest;top=0;left=0;right=0;bottom=0;strokeWidth=3;fontSize=21;" vertex="1" parent="FUyqoysUUn2u5ci2wIMg-1">
                    <mxGeometry y="60" width="180" height="30" as="geometry"/>
                </mxCell>
                <mxCell id="FUyqoysUUn2u5ci2wIMg-6" value="" style="shape=partialRectangle;connectable=0;fillColor=none;top=0;left=0;bottom=0;right=0;editable=1;overflow=hidden;strokeWidth=3;fontSize=21;" vertex="1" parent="FUyqoysUUn2u5ci2wIMg-5">
                    <mxGeometry width="30" height="30" as="geometry">
                        <mxRectangle width="30" height="30" as="alternateBounds"/>
                    </mxGeometry>
                </mxCell>
                <mxCell id="FUyqoysUUn2u5ci2wIMg-7" value="비밀번호" style="shape=partialRectangle;connectable=0;fillColor=none;top=0;left=0;bottom=0;right=0;align=left;spacingLeft=6;overflow=hidden;strokeWidth=3;fontSize=21;" vertex="1" parent="FUyqoysUUn2u5ci2wIMg-5">
                    <mxGeometry x="30" width="150" height="30" as="geometry">
                        <mxRectangle width="150" height="30" as="alternateBounds"/>
                    </mxGeometry>
                </mxCell>
                <mxCell id="FUyqoysUUn2u5ci2wIMg-8" value="" style="shape=tableRow;horizontal=0;startSize=0;swimlaneHead=0;swimlaneBody=0;fillColor=none;collapsible=0;dropTarget=0;points=[[0,0.5],[1,0.5]];portConstraint=eastwest;top=0;left=0;right=0;bottom=0;strokeWidth=3;fontSize=21;" vertex="1" parent="FUyqoysUUn2u5ci2wIMg-1">
                    <mxGeometry y="90" width="180" height="30" as="geometry"/>
                </mxCell>
                <mxCell id="FUyqoysUUn2u5ci2wIMg-9" value="" style="shape=partialRectangle;connectable=0;fillColor=none;top=0;left=0;bottom=0;right=0;editable=1;overflow=hidden;strokeWidth=3;fontSize=21;" vertex="1" parent="FUyqoysUUn2u5ci2wIMg-8">
                    <mxGeometry width="30" height="30" as="geometry">
                        <mxRectangle width="30" height="30" as="alternateBounds"/>
                    </mxGeometry>
                </mxCell>
                <mxCell id="FUyqoysUUn2u5ci2wIMg-10" value="이름" style="shape=partialRectangle;connectable=0;fillColor=none;top=0;left=0;bottom=0;right=0;align=left;spacingLeft=6;overflow=hidden;strokeWidth=3;fontSize=21;" vertex="1" parent="FUyqoysUUn2u5ci2wIMg-8">
                    <mxGeometry x="30" width="150" height="30" as="geometry">
                        <mxRectangle width="150" height="30" as="alternateBounds"/>
                    </mxGeometry>
                </mxCell>
                <mxCell id="FUyqoysUUn2u5ci2wIMg-11" value="" style="shape=tableRow;horizontal=0;startSize=0;swimlaneHead=0;swimlaneBody=0;fillColor=none;collapsible=0;dropTarget=0;points=[[0,0.5],[1,0.5]];portConstraint=eastwest;top=0;left=0;right=0;bottom=0;strokeWidth=3;fontSize=21;" vertex="1" parent="FUyqoysUUn2u5ci2wIMg-1">
                    <mxGeometry y="120" width="180" height="30" as="geometry"/>
                </mxCell>
                <mxCell id="FUyqoysUUn2u5ci2wIMg-12" value="" style="shape=partialRectangle;connectable=0;fillColor=none;top=0;left=0;bottom=0;right=0;editable=1;overflow=hidden;strokeWidth=3;fontSize=21;" vertex="1" parent="FUyqoysUUn2u5ci2wIMg-11">
                    <mxGeometry width="30" height="30" as="geometry">
                        <mxRectangle width="30" height="30" as="alternateBounds"/>
                    </mxGeometry>
                </mxCell>
                <mxCell id="FUyqoysUUn2u5ci2wIMg-13" value="나이" style="shape=partialRectangle;connectable=0;fillColor=none;top=0;left=0;bottom=0;right=0;align=left;spacingLeft=6;overflow=hidden;strokeWidth=3;fontSize=21;" vertex="1" parent="FUyqoysUUn2u5ci2wIMg-11">
                    <mxGeometry x="30" width="150" height="30" as="geometry">
                        <mxRectangle width="150" height="30" as="alternateBounds"/>
                    </mxGeometry>
                </mxCell>
                <mxCell id="FUyqoysUUn2u5ci2wIMg-14" value="" style="shape=tableRow;horizontal=0;startSize=0;swimlaneHead=0;swimlaneBody=0;fillColor=none;collapsible=0;dropTarget=0;points=[[0,0.5],[1,0.5]];portConstraint=eastwest;top=0;left=0;right=0;bottom=0;strokeWidth=3;fontSize=21;" vertex="1" parent="FUyqoysUUn2u5ci2wIMg-1">
                    <mxGeometry y="150" width="180" height="30" as="geometry"/>
                </mxCell>
                <mxCell id="FUyqoysUUn2u5ci2wIMg-15" value="" style="shape=partialRectangle;connectable=0;fillColor=none;top=0;left=0;bottom=0;right=0;editable=1;overflow=hidden;strokeWidth=3;fontSize=21;" vertex="1" parent="FUyqoysUUn2u5ci2wIMg-14">
                    <mxGeometry width="30" height="30" as="geometry">
                        <mxRectangle width="30" height="30" as="alternateBounds"/>
                    </mxGeometry>
                </mxCell>
                <mxCell id="FUyqoysUUn2u5ci2wIMg-16" value="직업" style="shape=partialRectangle;connectable=0;fillColor=none;top=0;left=0;bottom=0;right=0;align=left;spacingLeft=6;overflow=hidden;strokeWidth=3;fontSize=21;" vertex="1" parent="FUyqoysUUn2u5ci2wIMg-14">
                    <mxGeometry x="30" width="150" height="30" as="geometry">
                        <mxRectangle width="150" height="30" as="alternateBounds"/>
                    </mxGeometry>
                </mxCell>
                <mxCell id="FUyqoysUUn2u5ci2wIMg-17" value="" style="shape=tableRow;horizontal=0;startSize=0;swimlaneHead=0;swimlaneBody=0;fillColor=none;collapsible=0;dropTarget=0;points=[[0,0.5],[1,0.5]];portConstraint=eastwest;top=0;left=0;right=0;bottom=0;strokeWidth=3;fontSize=21;" vertex="1" parent="FUyqoysUUn2u5ci2wIMg-1">
                    <mxGeometry y="180" width="180" height="30" as="geometry"/>
                </mxCell>
                <mxCell id="FUyqoysUUn2u5ci2wIMg-18" value="" style="shape=partialRectangle;connectable=0;fillColor=none;top=0;left=0;bottom=0;right=0;editable=1;overflow=hidden;strokeWidth=3;fontSize=21;" vertex="1" parent="FUyqoysUUn2u5ci2wIMg-17">
                    <mxGeometry width="30" height="30" as="geometry">
                        <mxRectangle width="30" height="30" as="alternateBounds"/>
                    </mxGeometry>
                </mxCell>
                <mxCell id="FUyqoysUUn2u5ci2wIMg-19" value="등급" style="shape=partialRectangle;connectable=0;fillColor=none;top=0;left=0;bottom=0;right=0;align=left;spacingLeft=6;overflow=hidden;strokeWidth=3;fontSize=21;" vertex="1" parent="FUyqoysUUn2u5ci2wIMg-17">
                    <mxGeometry x="30" width="150" height="30" as="geometry">
                        <mxRectangle width="150" height="30" as="alternateBounds"/>
                    </mxGeometry>
                </mxCell>
                <mxCell id="FUyqoysUUn2u5ci2wIMg-20" value="" style="shape=tableRow;horizontal=0;startSize=0;swimlaneHead=0;swimlaneBody=0;fillColor=none;collapsible=0;dropTarget=0;points=[[0,0.5],[1,0.5]];portConstraint=eastwest;top=0;left=0;right=0;bottom=0;strokeWidth=3;fontSize=21;" vertex="1" parent="FUyqoysUUn2u5ci2wIMg-1">
                    <mxGeometry y="210" width="180" height="30" as="geometry"/>
                </mxCell>
                <mxCell id="FUyqoysUUn2u5ci2wIMg-21" value="" style="shape=partialRectangle;connectable=0;fillColor=none;top=0;left=0;bottom=0;right=0;editable=1;overflow=hidden;strokeWidth=3;fontSize=21;" vertex="1" parent="FUyqoysUUn2u5ci2wIMg-20">
                    <mxGeometry width="30" height="30" as="geometry">
                        <mxRectangle width="30" height="30" as="alternateBounds"/>
                    </mxGeometry>
                </mxCell>
                <mxCell id="FUyqoysUUn2u5ci2wIMg-22" value="적립금" style="shape=partialRectangle;connectable=0;fillColor=none;top=0;left=0;bottom=0;right=0;align=left;spacingLeft=6;overflow=hidden;strokeWidth=3;fontSize=21;" vertex="1" parent="FUyqoysUUn2u5ci2wIMg-20">
                    <mxGeometry x="30" width="150" height="30" as="geometry">
                        <mxRectangle width="150" height="30" as="alternateBounds"/>
                    </mxGeometry>
                </mxCell>
                <mxCell id="FUyqoysUUn2u5ci2wIMg-39" value="게시글" style="shape=table;startSize=30;container=1;collapsible=1;childLayout=tableLayout;fixedRows=1;rowLines=0;fontStyle=1;align=center;resizeLast=1;strokeWidth=3;fontSize=21;" vertex="1" parent="1">
                    <mxGeometry x="90" y="570" width="180" height="180" as="geometry"/>
                </mxCell>
                <mxCell id="FUyqoysUUn2u5ci2wIMg-40" value="" style="shape=tableRow;horizontal=0;startSize=0;swimlaneHead=0;swimlaneBody=0;fillColor=none;collapsible=0;dropTarget=0;points=[[0,0.5],[1,0.5]];portConstraint=eastwest;top=0;left=0;right=0;bottom=1;strokeWidth=3;fontSize=21;" vertex="1" parent="FUyqoysUUn2u5ci2wIMg-39">
                    <mxGeometry y="30" width="180" height="30" as="geometry"/>
                </mxCell>
                <mxCell id="FUyqoysUUn2u5ci2wIMg-41" value="PK" style="shape=partialRectangle;connectable=0;fillColor=none;top=0;left=0;bottom=0;right=0;fontStyle=1;overflow=hidden;strokeWidth=3;fontSize=21;" vertex="1" parent="FUyqoysUUn2u5ci2wIMg-40">
                    <mxGeometry width="30" height="30" as="geometry">
                        <mxRectangle width="30" height="30" as="alternateBounds"/>
                    </mxGeometry>
                </mxCell>
                <mxCell id="FUyqoysUUn2u5ci2wIMg-42" value="글번호" style="shape=partialRectangle;connectable=0;fillColor=none;top=0;left=0;bottom=0;right=0;align=left;spacingLeft=6;fontStyle=5;overflow=hidden;strokeWidth=3;fontSize=21;" vertex="1" parent="FUyqoysUUn2u5ci2wIMg-40">
                    <mxGeometry x="30" width="150" height="30" as="geometry">
                        <mxRectangle width="150" height="30" as="alternateBounds"/>
                    </mxGeometry>
                </mxCell>
                <mxCell id="FUyqoysUUn2u5ci2wIMg-43" value="" style="shape=tableRow;horizontal=0;startSize=0;swimlaneHead=0;swimlaneBody=0;fillColor=none;collapsible=0;dropTarget=0;points=[[0,0.5],[1,0.5]];portConstraint=eastwest;top=0;left=0;right=0;bottom=0;strokeWidth=3;fontSize=21;" vertex="1" parent="FUyqoysUUn2u5ci2wIMg-39">
                    <mxGeometry y="60" width="180" height="30" as="geometry"/>
                </mxCell>
                <mxCell id="FUyqoysUUn2u5ci2wIMg-44" value="" style="shape=partialRectangle;connectable=0;fillColor=none;top=0;left=0;bottom=0;right=0;editable=1;overflow=hidden;strokeWidth=3;fontSize=21;" vertex="1" parent="FUyqoysUUn2u5ci2wIMg-43">
                    <mxGeometry width="30" height="30" as="geometry">
                        <mxRectangle width="30" height="30" as="alternateBounds"/>
                    </mxGeometry>
                </mxCell>
                <mxCell id="FUyqoysUUn2u5ci2wIMg-45" value="제목" style="shape=partialRectangle;connectable=0;fillColor=none;top=0;left=0;bottom=0;right=0;align=left;spacingLeft=6;overflow=hidden;strokeWidth=3;fontSize=21;" vertex="1" parent="FUyqoysUUn2u5ci2wIMg-43">
                    <mxGeometry x="30" width="150" height="30" as="geometry">
                        <mxRectangle width="150" height="30" as="alternateBounds"/>
                    </mxGeometry>
                </mxCell>
                <mxCell id="FUyqoysUUn2u5ci2wIMg-46" value="" style="shape=tableRow;horizontal=0;startSize=0;swimlaneHead=0;swimlaneBody=0;fillColor=none;collapsible=0;dropTarget=0;points=[[0,0.5],[1,0.5]];portConstraint=eastwest;top=0;left=0;right=0;bottom=0;strokeWidth=3;fontSize=21;" vertex="1" parent="FUyqoysUUn2u5ci2wIMg-39">
                    <mxGeometry y="90" width="180" height="30" as="geometry"/>
                </mxCell>
                <mxCell id="FUyqoysUUn2u5ci2wIMg-47" value="" style="shape=partialRectangle;connectable=0;fillColor=none;top=0;left=0;bottom=0;right=0;editable=1;overflow=hidden;strokeWidth=3;fontSize=21;" vertex="1" parent="FUyqoysUUn2u5ci2wIMg-46">
                    <mxGeometry width="30" height="30" as="geometry">
                        <mxRectangle width="30" height="30" as="alternateBounds"/>
                    </mxGeometry>
                </mxCell>
                <mxCell id="FUyqoysUUn2u5ci2wIMg-48" value="내용" style="shape=partialRectangle;connectable=0;fillColor=none;top=0;left=0;bottom=0;right=0;align=left;spacingLeft=6;overflow=hidden;strokeWidth=3;fontSize=21;" vertex="1" parent="FUyqoysUUn2u5ci2wIMg-46">
                    <mxGeometry x="30" width="150" height="30" as="geometry">
                        <mxRectangle width="150" height="30" as="alternateBounds"/>
                    </mxGeometry>
                </mxCell>
                <mxCell id="FUyqoysUUn2u5ci2wIMg-49" value="" style="shape=tableRow;horizontal=0;startSize=0;swimlaneHead=0;swimlaneBody=0;fillColor=none;collapsible=0;dropTarget=0;points=[[0,0.5],[1,0.5]];portConstraint=eastwest;top=0;left=0;right=0;bottom=0;strokeWidth=3;fontSize=21;" vertex="1" parent="FUyqoysUUn2u5ci2wIMg-39">
                    <mxGeometry y="120" width="180" height="30" as="geometry"/>
                </mxCell>
                <mxCell id="FUyqoysUUn2u5ci2wIMg-50" value="" style="shape=partialRectangle;connectable=0;fillColor=none;top=0;left=0;bottom=0;right=0;editable=1;overflow=hidden;strokeWidth=3;fontSize=21;" vertex="1" parent="FUyqoysUUn2u5ci2wIMg-49">
                    <mxGeometry width="30" height="30" as="geometry">
                        <mxRectangle width="30" height="30" as="alternateBounds"/>
                    </mxGeometry>
                </mxCell>
                <mxCell id="FUyqoysUUn2u5ci2wIMg-51" value="작성일" style="shape=partialRectangle;connectable=0;fillColor=none;top=0;left=0;bottom=0;right=0;align=left;spacingLeft=6;overflow=hidden;strokeWidth=3;fontSize=21;" vertex="1" parent="FUyqoysUUn2u5ci2wIMg-49">
                    <mxGeometry x="30" width="150" height="30" as="geometry">
                        <mxRectangle width="150" height="30" as="alternateBounds"/>
                    </mxGeometry>
                </mxCell>
                <mxCell id="yMbCBPmPJJCuKpdouAT--2" value="" style="shape=tableRow;horizontal=0;startSize=0;swimlaneHead=0;swimlaneBody=0;fillColor=none;collapsible=0;dropTarget=0;points=[[0,0.5],[1,0.5]];portConstraint=eastwest;top=0;left=0;right=0;bottom=1;strokeWidth=3;fontSize=21;" vertex="1" parent="FUyqoysUUn2u5ci2wIMg-39">
                    <mxGeometry y="150" width="180" height="30" as="geometry"/>
                </mxCell>
                <mxCell id="yMbCBPmPJJCuKpdouAT--3" value="FK" style="shape=partialRectangle;connectable=0;fillColor=none;top=0;left=0;bottom=0;right=0;fontStyle=1;overflow=hidden;strokeWidth=3;fontSize=21;" vertex="1" parent="yMbCBPmPJJCuKpdouAT--2">
                    <mxGeometry width="30" height="30" as="geometry">
                        <mxRectangle width="30" height="30" as="alternateBounds"/>
                    </mxGeometry>
                </mxCell>
                <mxCell id="yMbCBPmPJJCuKpdouAT--4" value="회원아이디" style="shape=partialRectangle;connectable=0;fillColor=none;top=0;left=0;bottom=0;right=0;align=left;spacingLeft=6;fontStyle=5;overflow=hidden;strokeWidth=3;fontSize=21;" vertex="1" parent="yMbCBPmPJJCuKpdouAT--2">
                    <mxGeometry x="30" width="150" height="30" as="geometry">
                        <mxRectangle width="150" height="30" as="alternateBounds"/>
                    </mxGeometry>
                </mxCell>
                <mxCell id="yMbCBPmPJJCuKpdouAT--1" value="" style="edgeStyle=entityRelationEdgeStyle;fontSize=12;html=1;endArrow=ERoneToMany;strokeWidth=2;exitX=1;exitY=0.5;exitDx=0;exitDy=0;" edge="1" parent="1" source="rLvCmqJ5R6ihczDgy6Mz-2" target="FUyqoysUUn2u5ci2wIMg-52">
                    <mxGeometry width="100" height="100" relative="1" as="geometry">
                        <mxPoint x="710" y="510" as="sourcePoint"/>
                        <mxPoint x="810" y="410" as="targetPoint"/>
                    </mxGeometry>
                </mxCell>
                <mxCell id="Ae4jE_LfKKwsD2xhx1wd-1" value="회원:게시글&lt;br&gt;(1:N)&lt;br&gt;N쪽에 외래키 표현&lt;br&gt;회원 = 선택적 참여&lt;br&gt;게시글 = 필수적 참여" style="shape=note;size=20;whiteSpace=wrap;html=1;strokeWidth=3;fontSize=21;fillColor=#d5e8d4;strokeColor=#82b366;" vertex="1" parent="1">
                    <mxGeometry x="30" y="360" width="210" height="170" as="geometry"/>
                </mxCell>
                <mxCell id="Ae4jE_LfKKwsD2xhx1wd-3" value="" style="edgeStyle=entityRelationEdgeStyle;fontSize=12;html=1;endArrow=ERzeroToMany;startArrow=ERzeroToOne;strokeWidth=2;entryX=1;entryY=0.5;entryDx=0;entryDy=0;exitX=1;exitY=0.5;exitDx=0;exitDy=0;" edge="1" parent="1" source="FUyqoysUUn2u5ci2wIMg-2" target="FUyqoysUUn2u5ci2wIMg-40">
                    <mxGeometry width="100" height="100" relative="1" as="geometry">
                        <mxPoint x="300" y="530" as="sourcePoint"/>
                        <mxPoint x="400" y="430" as="targetPoint"/>
                    </mxGeometry>
                </mxCell>
                <mxCell id="Ae4jE_LfKKwsD2xhx1wd-4" value="회원:상품&lt;br&gt;(M:N)&lt;br&gt;테이블로 표현" style="shape=note;size=20;whiteSpace=wrap;html=1;strokeWidth=3;fontSize=21;fillColor=#d5e8d4;strokeColor=#82b366;" vertex="1" parent="1">
                    <mxGeometry x="370" y="350" width="210" height="100" as="geometry"/>
                </mxCell>
                <mxCell id="Ae4jE_LfKKwsD2xhx1wd-5" value="주문" style="shape=table;startSize=30;container=1;collapsible=1;childLayout=tableLayout;fixedRows=1;rowLines=0;fontStyle=1;align=center;resizeLast=1;strokeWidth=3;fontSize=21;" vertex="1" parent="1">
                    <mxGeometry x="370" y="100" width="180" height="210" as="geometry"/>
                </mxCell>
                <mxCell id="Ae4jE_LfKKwsD2xhx1wd-6" value="" style="shape=tableRow;horizontal=0;startSize=0;swimlaneHead=0;swimlaneBody=0;fillColor=none;collapsible=0;dropTarget=0;points=[[0,0.5],[1,0.5]];portConstraint=eastwest;top=0;left=0;right=0;bottom=1;strokeWidth=3;fontSize=21;" vertex="1" parent="Ae4jE_LfKKwsD2xhx1wd-5">
                    <mxGeometry y="30" width="180" height="30" as="geometry"/>
                </mxCell>
                <mxCell id="Ae4jE_LfKKwsD2xhx1wd-7" value="PK" style="shape=partialRectangle;connectable=0;fillColor=none;top=0;left=0;bottom=0;right=0;fontStyle=1;overflow=hidden;strokeWidth=3;fontSize=21;" vertex="1" parent="Ae4jE_LfKKwsD2xhx1wd-6">
                    <mxGeometry width="30" height="30" as="geometry">
                        <mxRectangle width="30" height="30" as="alternateBounds"/>
                    </mxGeometry>
                </mxCell>
                <mxCell id="Ae4jE_LfKKwsD2xhx1wd-8" value="주문번호" style="shape=partialRectangle;connectable=0;fillColor=none;top=0;left=0;bottom=0;right=0;align=left;spacingLeft=6;fontStyle=5;overflow=hidden;strokeWidth=3;fontSize=21;" vertex="1" parent="Ae4jE_LfKKwsD2xhx1wd-6">
                    <mxGeometry x="30" width="150" height="30" as="geometry">
                        <mxRectangle width="150" height="30" as="alternateBounds"/>
                    </mxGeometry>
                </mxCell>
                <mxCell id="Ae4jE_LfKKwsD2xhx1wd-9" value="" style="shape=tableRow;horizontal=0;startSize=0;swimlaneHead=0;swimlaneBody=0;fillColor=none;collapsible=0;dropTarget=0;points=[[0,0.5],[1,0.5]];portConstraint=eastwest;top=0;left=0;right=0;bottom=0;strokeWidth=3;fontSize=21;" vertex="1" parent="Ae4jE_LfKKwsD2xhx1wd-5">
                    <mxGeometry y="60" width="180" height="30" as="geometry"/>
                </mxCell>
                <mxCell id="Ae4jE_LfKKwsD2xhx1wd-10" value="" style="shape=partialRectangle;connectable=0;fillColor=none;top=0;left=0;bottom=0;right=0;editable=1;overflow=hidden;strokeWidth=3;fontSize=21;" vertex="1" parent="Ae4jE_LfKKwsD2xhx1wd-9">
                    <mxGeometry width="30" height="30" as="geometry">
                        <mxRectangle width="30" height="30" as="alternateBounds"/>
                    </mxGeometry>
                </mxCell>
                <mxCell id="Ae4jE_LfKKwsD2xhx1wd-11" value="주문수량" style="shape=partialRectangle;connectable=0;fillColor=none;top=0;left=0;bottom=0;right=0;align=left;spacingLeft=6;overflow=hidden;strokeWidth=3;fontSize=21;" vertex="1" parent="Ae4jE_LfKKwsD2xhx1wd-9">
                    <mxGeometry x="30" width="150" height="30" as="geometry">
                        <mxRectangle width="150" height="30" as="alternateBounds"/>
                    </mxGeometry>
                </mxCell>
                <mxCell id="Ae4jE_LfKKwsD2xhx1wd-12" value="" style="shape=tableRow;horizontal=0;startSize=0;swimlaneHead=0;swimlaneBody=0;fillColor=none;collapsible=0;dropTarget=0;points=[[0,0.5],[1,0.5]];portConstraint=eastwest;top=0;left=0;right=0;bottom=0;strokeWidth=3;fontSize=21;" vertex="1" parent="Ae4jE_LfKKwsD2xhx1wd-5">
                    <mxGeometry y="90" width="180" height="30" as="geometry"/>
                </mxCell>
                <mxCell id="Ae4jE_LfKKwsD2xhx1wd-13" value="" style="shape=partialRectangle;connectable=0;fillColor=none;top=0;left=0;bottom=0;right=0;editable=1;overflow=hidden;strokeWidth=3;fontSize=21;" vertex="1" parent="Ae4jE_LfKKwsD2xhx1wd-12">
                    <mxGeometry width="30" height="30" as="geometry">
                        <mxRectangle width="30" height="30" as="alternateBounds"/>
                    </mxGeometry>
                </mxCell>
                <mxCell id="Ae4jE_LfKKwsD2xhx1wd-14" value="배송지" style="shape=partialRectangle;connectable=0;fillColor=none;top=0;left=0;bottom=0;right=0;align=left;spacingLeft=6;overflow=hidden;strokeWidth=3;fontSize=21;" vertex="1" parent="Ae4jE_LfKKwsD2xhx1wd-12">
                    <mxGeometry x="30" width="150" height="30" as="geometry">
                        <mxRectangle width="150" height="30" as="alternateBounds"/>
                    </mxGeometry>
                </mxCell>
                <mxCell id="Ae4jE_LfKKwsD2xhx1wd-15" value="" style="shape=tableRow;horizontal=0;startSize=0;swimlaneHead=0;swimlaneBody=0;fillColor=none;collapsible=0;dropTarget=0;points=[[0,0.5],[1,0.5]];portConstraint=eastwest;top=0;left=0;right=0;bottom=0;strokeWidth=3;fontSize=21;" vertex="1" parent="Ae4jE_LfKKwsD2xhx1wd-5">
                    <mxGeometry y="120" width="180" height="30" as="geometry"/>
                </mxCell>
                <mxCell id="Ae4jE_LfKKwsD2xhx1wd-16" value="" style="shape=partialRectangle;connectable=0;fillColor=none;top=0;left=0;bottom=0;right=0;editable=1;overflow=hidden;strokeWidth=3;fontSize=21;" vertex="1" parent="Ae4jE_LfKKwsD2xhx1wd-15">
                    <mxGeometry width="30" height="30" as="geometry">
                        <mxRectangle width="30" height="30" as="alternateBounds"/>
                    </mxGeometry>
                </mxCell>
                <mxCell id="Ae4jE_LfKKwsD2xhx1wd-17" value="주문일자" style="shape=partialRectangle;connectable=0;fillColor=none;top=0;left=0;bottom=0;right=0;align=left;spacingLeft=6;overflow=hidden;strokeWidth=3;fontSize=21;" vertex="1" parent="Ae4jE_LfKKwsD2xhx1wd-15">
                    <mxGeometry x="30" width="150" height="30" as="geometry">
                        <mxRectangle width="150" height="30" as="alternateBounds"/>
                    </mxGeometry>
                </mxCell>
                <mxCell id="Ae4jE_LfKKwsD2xhx1wd-31" value="" style="shape=tableRow;horizontal=0;startSize=0;swimlaneHead=0;swimlaneBody=0;fillColor=none;collapsible=0;dropTarget=0;points=[[0,0.5],[1,0.5]];portConstraint=eastwest;top=0;left=0;right=0;bottom=1;strokeWidth=3;fontSize=21;" vertex="1" parent="Ae4jE_LfKKwsD2xhx1wd-5">
                    <mxGeometry y="150" width="180" height="30" as="geometry"/>
                </mxCell>
                <mxCell id="Ae4jE_LfKKwsD2xhx1wd-32" value="FK" style="shape=partialRectangle;connectable=0;fillColor=none;top=0;left=0;bottom=0;right=0;fontStyle=1;overflow=hidden;strokeWidth=3;fontSize=21;" vertex="1" parent="Ae4jE_LfKKwsD2xhx1wd-31">
                    <mxGeometry width="30" height="30" as="geometry">
                        <mxRectangle width="30" height="30" as="alternateBounds"/>
                    </mxGeometry>
                </mxCell>
                <mxCell id="Ae4jE_LfKKwsD2xhx1wd-33" value="회원아이디" style="shape=partialRectangle;connectable=0;fillColor=none;top=0;left=0;bottom=0;right=0;align=left;spacingLeft=6;fontStyle=5;overflow=hidden;strokeWidth=3;fontSize=21;" vertex="1" parent="Ae4jE_LfKKwsD2xhx1wd-31">
                    <mxGeometry x="30" width="150" height="30" as="geometry">
                        <mxRectangle width="150" height="30" as="alternateBounds"/>
                    </mxGeometry>
                </mxCell>
                <mxCell id="Ae4jE_LfKKwsD2xhx1wd-34" value="" style="shape=tableRow;horizontal=0;startSize=0;swimlaneHead=0;swimlaneBody=0;fillColor=none;collapsible=0;dropTarget=0;points=[[0,0.5],[1,0.5]];portConstraint=eastwest;top=0;left=0;right=0;bottom=1;strokeWidth=3;fontSize=21;" vertex="1" parent="Ae4jE_LfKKwsD2xhx1wd-5">
                    <mxGeometry y="180" width="180" height="30" as="geometry"/>
                </mxCell>
                <mxCell id="Ae4jE_LfKKwsD2xhx1wd-35" value="FK" style="shape=partialRectangle;connectable=0;fillColor=none;top=0;left=0;bottom=0;right=0;fontStyle=1;overflow=hidden;strokeWidth=3;fontSize=21;" vertex="1" parent="Ae4jE_LfKKwsD2xhx1wd-34">
                    <mxGeometry width="30" height="30" as="geometry">
                        <mxRectangle width="30" height="30" as="alternateBounds"/>
                    </mxGeometry>
                </mxCell>
                <mxCell id="Ae4jE_LfKKwsD2xhx1wd-36" value="상품번호" style="shape=partialRectangle;connectable=0;fillColor=none;top=0;left=0;bottom=0;right=0;align=left;spacingLeft=6;fontStyle=5;overflow=hidden;strokeWidth=3;fontSize=21;" vertex="1" parent="Ae4jE_LfKKwsD2xhx1wd-34">
                    <mxGeometry x="30" width="150" height="30" as="geometry">
                        <mxRectangle width="150" height="30" as="alternateBounds"/>
                    </mxGeometry>
                </mxCell>
                <mxCell id="Ae4jE_LfKKwsD2xhx1wd-37" value="" style="edgeStyle=entityRelationEdgeStyle;fontSize=12;html=1;endArrow=ERoneToMany;strokeWidth=2;entryX=0;entryY=0.5;entryDx=0;entryDy=0;exitX=1.011;exitY=-0.011;exitDx=0;exitDy=0;exitPerimeter=0;" edge="1" parent="1" source="FUyqoysUUn2u5ci2wIMg-2" target="Ae4jE_LfKKwsD2xhx1wd-31">
                    <mxGeometry width="100" height="100" relative="1" as="geometry">
                        <mxPoint x="330" y="550" as="sourcePoint"/>
                        <mxPoint x="430" y="450" as="targetPoint"/>
                    </mxGeometry>
                </mxCell>
                <mxCell id="Ae4jE_LfKKwsD2xhx1wd-38" value="" style="edgeStyle=entityRelationEdgeStyle;fontSize=12;html=1;endArrow=ERoneToMany;strokeWidth=2;exitX=0;exitY=0.25;exitDx=0;exitDy=0;entryX=1;entryY=0.5;entryDx=0;entryDy=0;" edge="1" parent="1" source="_etcFufbZ5QCCoaGHkaQ-1" target="Ae4jE_LfKKwsD2xhx1wd-34">
                    <mxGeometry width="100" height="100" relative="1" as="geometry">
                        <mxPoint x="330" y="550" as="sourcePoint"/>
                        <mxPoint x="430" y="450" as="targetPoint"/>
                    </mxGeometry>
                </mxCell>
            </root>
        </mxGraphModel>
    </diagram>
</mxfile>